<svg width="22" height="22" viewBox="0 0 22 22" fill="none" xmlns="http://www.w3.org/2000/svg">
<path d="M5.60996 8.25011H15.8491C16.0312 8.24905 16.2095 8.30224 16.3612 8.40289C16.5129 8.50354 16.6312 8.64709 16.701 8.81525C16.7709 8.98341 16.789 9.16855 16.7532 9.34707C16.7174 9.52559 16.6292 9.6894 16.5 9.81761L11.3758 14.9326C11.204 15.1034 10.9717 15.1992 10.7295 15.1992C10.4874 15.1992 10.255 15.1034 10.0833 14.9326L4.95912 9.81761C4.82984 9.6894 4.74168 9.52559 4.70586 9.34707C4.67005 9.16855 4.68821 8.98341 4.75803 8.81525C4.82785 8.64709 4.94617 8.50354 5.09789 8.40289C5.24962 8.30224 5.42788 8.24905 5.60996 8.25011Z" fill="url(#paint0_linear_51_8)"/>
<defs>
<linearGradient id="paint0_linear_51_8" x1="10.5746" y1="8.25009" x2="10.5746" y2="15.1992" gradientUnits="userSpaceOnUse">
<stop stop-color="#D34E23"/>
<stop offset="1" stop-color="#EB9B6E"/>
</linearGradient>
</defs>
</svg>
