<svg width="20" height="20" viewBox="0 0 20 20" fill="none" xmlns="http://www.w3.org/2000/svg">
<g clip-path="url(#clip0_10_131)">
<path d="M17.4166 3.576C17.1231 2.77284 16.5901 2.07916 15.8896 1.58869C15.1892 1.09822 14.355 0.834616 13.4999 0.833496H6.49991C5.64481 0.834616 4.81067 1.09822 4.11021 1.58869C3.40975 2.07916 2.87675 2.77284 2.58325 3.576L0.333246 9.76516C0.111954 10.3747 -0.000862163 11.0183 -8.75912e-05 11.6668V12.5002C0.00139935 13.1442 0.152773 13.779 0.44205 14.3543C0.731327 14.9297 1.15057 15.4299 1.66658 15.8152C1.66658 15.8218 1.66658 15.8268 1.66658 15.8335V17.5002C1.66658 18.1632 1.92997 18.7991 2.39881 19.2679C2.86765 19.7368 3.50354 20.0002 4.16658 20.0002C4.82962 20.0002 5.46551 19.7368 5.93435 19.2679C6.40319 18.7991 6.66658 18.1632 6.66658 17.5002V16.6668H13.3332V17.5002C13.3332 18.1632 13.5966 18.7991 14.0655 19.2679C14.5343 19.7368 15.1702 20.0002 15.8332 20.0002C16.4963 20.0002 17.1322 19.7368 17.601 19.2679C18.0699 18.7991 18.3332 18.1632 18.3332 17.5002V15.8335C18.3332 15.8268 18.3332 15.8218 18.3332 15.8152C18.8493 15.4299 19.2685 14.9297 19.5578 14.3543C19.8471 13.779 19.9984 13.1442 19.9999 12.5002V11.6668C20.0008 11.0186 19.8879 10.3753 19.6666 9.766L17.4166 3.576ZM4.15158 4.146C4.32778 3.66447 4.64736 3.24854 5.06725 2.95425C5.48715 2.65997 5.98716 2.50149 6.49991 2.50016H13.4999C14.0129 2.50115 14.5133 2.65947 14.9336 2.95378C15.3538 3.24808 15.6736 3.6642 15.8499 4.146L17.6732 9.16683H2.32575L4.15158 4.146ZM4.99991 17.5002C4.99991 17.7212 4.91212 17.9331 4.75583 18.0894C4.59955 18.2457 4.38759 18.3335 4.16658 18.3335C3.94557 18.3335 3.7336 18.2457 3.57732 18.0894C3.42104 17.9331 3.33325 17.7212 3.33325 17.5002V16.5835C3.60752 16.6392 3.88671 16.6671 4.16658 16.6668H4.99991V17.5002ZM16.6666 17.5002C16.6666 17.7212 16.5788 17.9331 16.4225 18.0894C16.2662 18.2457 16.0543 18.3335 15.8332 18.3335C15.6122 18.3335 15.4003 18.2457 15.244 18.0894C15.0877 17.9331 14.9999 17.7212 14.9999 17.5002V16.6668H15.8332C16.1131 16.6671 16.3923 16.6392 16.6666 16.5835V17.5002ZM18.3332 12.5002C18.3332 13.1632 18.0699 13.7991 17.601 14.2679C17.1322 14.7368 16.4963 15.0002 15.8332 15.0002H4.16658C3.50354 15.0002 2.86765 14.7368 2.39881 14.2679C1.92997 13.7991 1.66658 13.1632 1.66658 12.5002V11.6668C1.66997 11.3862 1.70378 11.1068 1.76741 10.8335H3.33325V11.6668C3.33325 11.8878 3.42104 12.0998 3.57732 12.2561C3.7336 12.4124 3.94557 12.5002 4.16658 12.5002C4.38759 12.5002 4.59955 12.4124 4.75583 12.2561C4.91212 12.0998 4.99991 11.8878 4.99991 11.6668V10.8335H14.9999V11.6668C14.9999 11.8878 15.0877 12.0998 15.244 12.2561C15.4003 12.4124 15.6122 12.5002 15.8332 12.5002C16.0543 12.5002 16.2662 12.4124 16.4225 12.2561C16.5788 12.0998 16.6666 11.8878 16.6666 11.6668V10.8335H18.2324C18.2961 11.1068 18.3299 11.3862 18.3332 11.6668V12.5002Z" fill="url(#paint0_linear_10_131)"/>
</g>
<defs>
<linearGradient id="paint0_linear_10_131" x1="-9.14182e-05" y1="10.6626" x2="19.9999" y2="10.6626" gradientUnits="userSpaceOnUse">
<stop stop-color="#D34E23"/>
<stop offset="1" stop-color="#EB9B6E"/>
</linearGradient>
<clipPath id="clip0_10_131">
<rect width="20" height="20" fill="white"/>
</clipPath>
</defs>
</svg>
