<svg width="24" height="24" viewBox="0 0 24 24" fill="none" xmlns="http://www.w3.org/2000/svg">
<path d="M14.44 19.05L15.96 20.57L19 17.53" stroke="url(#paint0_linear_44_5)" stroke-width="1.5" stroke-linecap="round" stroke-linejoin="round"/>
<path d="M12.16 10.87C12.06 10.86 11.94 10.86 11.83 10.87C9.45 10.79 7.56 8.84 7.56 6.44C7.55 3.99 9.54 2 11.99 2C14.44 2 16.43 3.99 16.43 6.44C16.43 8.84 14.53 10.79 12.16 10.87Z" stroke="url(#paint1_linear_44_5)" stroke-width="1.5" stroke-linecap="round" stroke-linejoin="round"/>
<path d="M11.99 21.8099C10.17 21.8099 8.36 21.3499 6.98 20.4299C4.56 18.8099 4.56 16.1699 6.98 14.5599C9.73 12.7199 14.24 12.7199 16.99 14.5599" stroke="url(#paint2_linear_44_5)" stroke-width="1.5" stroke-linecap="round" stroke-linejoin="round"/>
<defs>
<linearGradient id="paint0_linear_44_5" x1="14.44" y1="19.089" x2="19" y2="19.089" gradientUnits="userSpaceOnUse">
<stop stop-color="#D34E23"/>
<stop offset="1" stop-color="#EB9B6E"/>
</linearGradient>
<linearGradient id="paint1_linear_44_5" x1="7.55996" y1="6.54872" x2="16.43" y2="6.54872" gradientUnits="userSpaceOnUse">
<stop stop-color="#D34E23"/>
<stop offset="1" stop-color="#EB9B6E"/>
</linearGradient>
<linearGradient id="paint2_linear_44_5" x1="5.165" y1="17.6056" x2="16.99" y2="17.6056" gradientUnits="userSpaceOnUse">
<stop stop-color="#D34E23"/>
<stop offset="1" stop-color="#EB9B6E"/>
</linearGradient>
</defs>
</svg>
